<svg width="285" height="59" viewBox="0 0 285 59" fill="none" xmlns="http://www.w3.org/2000/svg">
<path d="M0.0118408 34.2799C0.0118408 36.7703 0.934997 39.1962 2.78131 41.5578C5.27168 44.6493 8.62081 46.2165 12.8287 46.2595V40.7205C9.86599 40.7205 7.71912 39.4109 6.38806 36.7917C5.91574 35.8471 5.67959 35.0098 5.67959 34.2799V12.5749C5.67959 11.0721 6.32365 9.63369 7.61177 8.25968C9.02871 6.84274 10.7677 6.1128 12.8287 6.06986V0.530912C7.93381 0.487975 4.28412 2.50604 1.87962 6.58512C0.634434 8.68906 0.0118408 10.6857 0.0118408 12.5749V34.2799ZM15.9846 46.2595C19.4196 46.2595 22.3608 44.9499 24.8082 42.3307C26.998 39.9691 28.093 37.264 28.093 34.2155L22.7472 32.9273C22.7472 33.3997 22.7258 33.7432 22.6828 33.9578C22.597 34.9454 22.4681 35.6753 22.2964 36.1477C21.91 37.3929 21.18 38.4019 20.1066 39.1748C19.0761 39.9476 18.1315 40.3985 17.2727 40.5273L15.9846 40.7205V46.2595ZM15.9846 6.06986C15.9846 6.06986 16.6072 6.22015 17.8524 6.52071C19.9992 7.4224 21.4806 8.92522 22.2964 11.0292C22.4681 11.5444 22.597 12.2314 22.6828 13.0902V14.1207L28.093 12.7037C28.093 9.44047 26.7404 6.52071 24.0354 3.94445C21.545 1.66876 18.8614 0.530912 15.9846 0.530912V6.06986Z" fill="#F7F8FD"/>
<path d="M32.537 36.4053V20.4969C32.537 18.4788 33.4387 16.5037 35.242 14.5715C37.4748 12.2529 40.2657 11.0936 43.6149 11.0936V16.3105C41.0815 16.3105 39.3211 17.3625 38.3335 19.4664C38.033 20.1105 37.8827 20.7545 37.8827 21.3986V35.568C37.8827 37.1567 38.6126 38.5092 40.0725 39.6256C41.103 40.3985 42.2838 40.7849 43.6149 40.7849V46.0018C39.5358 46.0018 36.3799 44.3487 34.1471 41.0425C33.0737 39.4109 32.537 37.8652 32.537 36.4053ZM46.3843 46.0018V40.7849C48.66 40.7849 50.2916 39.7544 51.2792 37.6934C51.6227 37.0064 51.7944 36.3409 51.7944 35.6968V21.3986C51.7944 19.6381 51.043 18.2427 49.5402 17.2122C48.5956 16.611 47.5222 16.3105 46.3199 16.3105V11.0936C50.2702 11.0936 53.3187 12.7037 55.4656 15.924C56.539 17.5127 57.0758 19.037 57.0758 20.4969V36.4053C57.0758 38.5092 56.1741 40.5488 54.3707 42.5239C52.2668 44.7996 49.6046 45.9589 46.3843 46.0018Z" fill="#F7F8FD"/>
<path d="M61.4554 36.4053V20.4969C61.4983 18.1783 62.5503 16.0314 64.6113 14.0563C66.6293 12.1241 68.9909 11.158 71.696 11.158H76.7841V16.3749H71.7604C69.9999 16.3749 68.5615 17.1692 67.4452 18.7579C66.9728 19.4879 66.7367 20.1749 66.7367 20.8189V36.2765C66.7367 37.6505 67.5096 38.8313 69.0553 39.8188C69.957 40.42 70.8801 40.7205 71.8248 40.7205H76.7841V45.9374H71.8892C68.0677 45.9374 65.1051 44.2843 63.0011 40.9781C61.9706 39.3465 61.4554 37.8222 61.4554 36.4053ZM79.8756 45.9374L79.94 0.4021H85.4789V45.9374H79.8756Z" fill="#F7F8FD"/>
<path d="M90.6314 36.4053V20.4325C90.6743 18.4574 91.619 16.5037 93.4653 14.5715C95.698 12.2958 98.4031 11.1365 101.58 11.0936V16.1817C99.5194 16.1817 97.9093 17.0834 96.75 18.8867C96.2777 19.6596 96.0415 20.3681 96.0415 21.0122V25.3918H110.469V21.0122C110.469 19.08 109.481 17.663 107.506 16.7613C106.604 16.332 105.681 16.1173 104.736 16.1173V11.0936C107.699 11.0936 110.34 12.1455 112.658 14.2495C114.591 16.0958 115.578 18.1353 115.621 20.3681V30.6087H96.0415V36.4053C96.0415 37.6075 96.7285 38.7239 98.1025 39.7544C99.2189 40.5273 100.4 40.9137 101.645 40.9137V45.9374C97.7375 45.9374 94.6675 44.3487 92.4348 41.1714C91.2325 39.4968 90.6314 37.9081 90.6314 36.4053ZM104.736 45.9374V40.8493C107.313 40.8493 109.245 39.733 110.533 37.5002C110.791 37.0279 110.984 36.577 111.113 36.1477L115.685 37.8222C114.913 40.7849 113.152 43.0177 110.404 44.5205C108.644 45.4651 106.754 45.9374 104.736 45.9374Z" fill="#F7F8FD"/>
<path d="M120.516 45.9374H126.119V0.852945H120.516V45.9374ZM129.34 46.0018H134.685C139.709 46.0018 143.466 44.177 145.956 40.5273C147.459 38.2945 148.211 35.7827 148.211 32.9917C148.168 28.8697 146.643 25.6494 143.638 23.3308C146.085 21.5274 147.524 18.9082 147.953 15.4732C148.039 14.8721 148.082 14.2924 148.082 13.7342C148.082 9.69809 146.686 6.4563 143.895 4.00886C141.491 1.90492 138.378 0.852945 134.556 0.852945H129.34V5.87665H133.912C137.562 5.87665 140.117 7.35799 141.577 10.3207C142.178 11.5229 142.478 12.7681 142.478 14.0563C142.478 17.7918 140.696 19.9816 137.133 20.6257C136.489 20.7545 135.802 20.8189 135.072 20.8189H129.34V25.8426H135.072C139.108 25.8426 141.534 27.4313 142.35 30.6087C142.521 31.2528 142.607 31.9398 142.607 32.6697C142.607 35.6753 141.383 37.951 138.936 39.4968C137.261 40.4844 135.201 40.9781 132.753 40.9781H129.34V46.0018Z" fill="#F7F8FD"/>
<path d="M150.851 11.0936H156.583L166.373 38.3375L159.739 58.1747H154.265L160.577 38.2731L150.851 11.0936ZM165.085 26.0359L170.946 11.0936H176.614L168.048 33.5714H167.468L165.085 26.0359Z" fill="#F7F8FD"/>
<path d="M179.512 45.9374H185.115V0.852945H179.512V45.9374ZM188.336 25.7782H195.292C200.916 25.7353 204.437 23.5884 205.854 19.3376C206.412 17.6201 206.691 15.5805 206.691 13.219C206.691 5.36139 203.149 1.23938 196.064 0.852945C195.807 0.852945 195.549 0.852945 195.292 0.852945H188.336V6.26308H194.39C198.727 6.34896 200.916 8.66759 200.959 13.219C200.873 17.8992 198.705 20.2607 194.454 20.3037H188.336V25.7782Z" fill="#F7F8FD"/>
<path d="M210.813 6.32749C210.813 4.99642 211.436 4.0518 212.681 3.49361C213.111 3.32186 213.54 3.23598 213.969 3.23598C215.257 3.23598 216.202 3.83711 216.803 5.03936C216.975 5.46874 217.061 5.89811 217.061 6.32749C217.061 7.61562 216.46 8.56025 215.257 9.16137C214.828 9.33312 214.399 9.419 213.969 9.419C212.638 9.419 211.672 8.81787 211.071 7.61562C210.899 7.18624 210.813 6.75687 210.813 6.32749ZM211.264 45.9374V11.9953H216.674V45.9374H211.264Z" fill="#F7F8FD"/>
<path d="M220.539 45.9374L229.684 28.2901L220.796 11.0936H226.271L232.776 22.6223L239.281 11.0936H244.82L235.932 28.2901L245.013 45.9374H239.539L232.776 33.829L226.013 45.9374H220.539Z" fill="#F7F8FD"/>
<path d="M248.04 36.4053V20.4325C248.083 18.4574 249.028 16.5037 250.874 14.5715C253.107 12.2958 255.812 11.1365 258.989 11.0936V16.1817C256.928 16.1817 255.318 17.0834 254.159 18.8867C253.686 19.6596 253.45 20.3681 253.45 21.0122V25.3918H267.877V21.0122C267.877 19.08 266.89 17.663 264.915 16.7613C264.013 16.332 263.09 16.1173 262.145 16.1173V11.0936C265.108 11.0936 267.749 12.1455 270.067 14.2495C271.999 16.0958 272.987 18.1353 273.03 20.3681V30.6087H253.45V36.4053C253.45 37.6075 254.137 38.7239 255.511 39.7544C256.628 40.5273 257.808 40.9137 259.054 40.9137V45.9374C255.146 45.9374 252.076 44.3487 249.844 41.1714C248.641 39.4968 248.04 37.9081 248.04 36.4053ZM262.145 45.9374V40.8493C264.721 40.8493 266.654 39.733 267.942 37.5002C268.199 37.0279 268.393 36.577 268.521 36.1477L273.094 37.8222C272.321 40.7849 270.561 43.0177 267.813 44.5205C266.052 45.4651 264.163 45.9374 262.145 45.9374Z" fill="#F7F8FD"/>
<path d="M278.376 45.9374V0.466506H284.108V45.9374H278.376Z" fill="#F7F8FD"/>
</svg>
