<svg width="496" height="496" viewBox="0 0 496 496" fill="none" xmlns="http://www.w3.org/2000/svg">
<g clip-path="url(#clip0)">
<path d="M483.01 119.27C488.746 109.989 492.297 99.296 492.297 86.605C492.297 8.436 367.816 0 314.3 0C260.774 0 136.308 8.437 136.308 86.605C136.308 99.296 139.858 109.989 145.578 119.27C139.762 128.54 136.308 139.328 136.308 152.076C136.308 161.034 138.13 168.952 141.201 176.123C142.798 176.084 144.348 175.882 145.963 175.882C199.283 175.882 247.043 199.811 279.33 237.388C292.469 238.323 304.614 238.691 314.3 238.691C345.917 238.691 402.211 235.614 443.067 217.058C443.067 237.782 385.477 255.057 314.3 255.057C306.821 255.057 299.531 254.833 292.386 254.476C302.441 269.557 310.113 286.299 315.164 304.154C346.915 304.096 402.479 300.936 442.975 282.575C442.786 302.797 387.834 319.745 318.938 320.464C320.791 330.663 321.91 341.109 321.91 351.831C321.91 357.816 321.59 363.724 321.015 369.557C377.454 368.847 492.297 358.162 492.297 283.014C492.297 270.268 488.844 259.478 483.01 250.208C488.746 240.93 492.297 230.238 492.297 217.546C492.297 204.792 488.844 193.986 483.041 184.7C488.746 175.427 492.297 164.752 492.297 152.077C492.296 139.328 488.844 128.54 483.01 119.27ZM314.3 189.587C218.051 189.587 184.349 158.644 185.523 151.594C206.588 162.75 282.653 173.221 314.3 173.221C345.917 173.221 405.167 168.144 443.067 151.594C443.264 165.11 396.063 189.587 314.3 189.587ZM314.3 124.12C243.11 124.12 185.409 107.329 185.409 86.605C185.409 65.89 243.11 49.101 314.3 49.101C385.477 49.101 443.194 65.89 443.194 86.605C443.194 107.329 385.477 124.12 314.3 124.12Z" fill="white"/>
<path d="M145.962 208.618C66.986 208.618 2.74701 272.865 2.74701 351.83C2.74701 430.797 66.986 495.045 145.962 495.045C224.92 495.045 289.174 430.797 289.174 351.83C289.174 272.865 224.921 208.618 145.962 208.618ZM145.962 445.942C94.061 445.942 51.849 403.722 51.849 351.83C51.849 299.94 94.061 257.72 145.962 257.72C197.843 257.72 240.072 299.941 240.072 351.83C240.072 403.722 197.843 445.942 145.962 445.942Z" fill="white"/>
<path d="M156.798 335.296C143.163 330.164 141.134 327.879 141.134 326.966C141.134 324.091 147.735 323.946 149.061 323.946C153.634 323.946 157.917 324.578 162.17 325.881C166.02 327.058 170.32 326.593 173.837 324.626C177.386 322.643 180.007 319.246 181.174 314.716C183.299 306.404 178.296 297.862 170.001 295.673C166.836 294.84 163.417 294.216 159.771 293.809V293.106C159.771 285.299 153.442 278.953 145.626 278.953C137.81 278.953 131.48 285.3 131.48 293.106V295.824C114.284 300.875 103.83 313.527 103.83 329.749C103.83 351.654 123.009 360.646 137.443 365.505C150.614 369.949 150.614 372.73 150.614 373.922C150.614 377.077 144.602 377.924 141.039 377.924C135.637 377.924 130.106 376.925 124.576 374.952C120.74 373.567 116.36 373.888 112.78 375.8C109.137 377.724 106.45 381.121 105.108 386.388C103.031 394.541 107.666 402.932 115.69 405.513C120.341 406.992 125.503 408.085 130.65 408.686V410.564C130.65 418.372 136.996 424.718 144.813 424.718C152.612 424.718 158.959 418.371 158.959 410.564V406.807C176.812 401.901 188.079 388.523 188.079 371.627C188.078 354.133 178.391 342.919 156.798 335.296Z" fill="white"/>
</g>
<defs>
<clipPath id="clip0">
<rect width="495.045" height="495.045" fill="white"/>
</clipPath>
</defs>
</svg>
