<svg width="480" height="465" viewBox="0 0 480 465" fill="none" xmlns="http://www.w3.org/2000/svg">
<path d="M472 48.0021H223.419C221.497 34.6742 214.837 22.4852 204.659 13.669C194.48 4.8528 181.466 0 168 0C154.534 0 141.52 4.8528 131.341 13.669C121.163 22.4852 114.503 34.6742 112.581 48.0021H72C69.8783 48.0021 67.8434 48.845 66.3431 50.3452C64.8429 51.8455 64 53.8804 64 56.0021V320.002H8C5.87827 320.002 3.84344 320.845 2.34315 322.345C0.842854 323.846 0 325.88 0 328.002V360.002C0.0119105 370.607 4.23001 380.774 11.7289 388.273C19.2278 395.772 29.395 399.99 40 400.002H64V456.002C64 458.124 64.8429 460.159 66.3431 461.659C67.8434 463.159 69.8783 464.002 72 464.002H472C474.122 464.002 476.157 463.159 477.657 461.659C479.157 460.159 480 458.124 480 456.002V56.0021C480 53.8804 479.157 51.8455 477.657 50.3452C476.157 48.845 474.122 48.0021 472 48.0021ZM168 16.0021C177.218 16.0128 186.15 19.2015 193.291 25.0307C200.432 30.8599 205.344 38.973 207.2 48.0021H128.81C130.666 38.9746 135.577 30.8629 142.715 25.0339C149.854 19.2049 158.784 16.0151 168 16.0021V16.0021ZM80 64.0021H112V144.002C112 152.489 115.371 160.628 121.373 166.63C127.374 172.631 135.513 176.002 144 176.002C152.487 176.002 160.626 172.631 166.627 166.63C172.629 160.628 176 152.489 176 144.002V88.0021C176 85.8804 175.157 83.8455 173.657 82.3452C172.157 80.845 170.122 80.0021 168 80.0021C165.878 80.0021 163.843 80.845 162.343 82.3452C160.843 83.8455 160 85.8804 160 88.0021V144.002C160 148.246 158.314 152.315 155.314 155.316C152.313 158.316 148.243 160.002 144 160.002C139.757 160.002 135.687 158.316 132.686 155.316C129.686 152.315 128 148.246 128 144.002V64.0021H464V360.002C464 366.367 461.471 372.472 456.971 376.973C452.47 381.474 446.365 384.002 440 384.002C433.635 384.002 427.53 381.474 423.029 376.973C418.529 372.472 416 366.367 416 360.002V328.002C416 325.88 415.157 323.846 413.657 322.345C412.157 320.845 410.122 320.002 408 320.002H80V64.0021ZM16 360.002V336.002H400V360.002C399.99 368.662 402.806 377.088 408.019 384.002H40C33.6371 383.995 27.5369 381.464 23.0376 376.964C18.5384 372.465 16.0074 366.365 16 360.002ZM80 448.002V400.002H440C448.66 400.011 457.086 397.195 464 391.98V448.002H80ZM352 232.002C352 234.124 351.157 236.159 349.657 237.659C348.157 239.159 346.122 240.002 344 240.002H216C213.878 240.002 211.843 239.159 210.343 237.659C208.843 236.159 208 234.124 208 232.002C208 229.88 208.843 227.846 210.343 226.345C211.843 224.845 213.878 224.002 216 224.002H344C346.122 224.002 348.157 224.845 349.657 226.345C351.157 227.846 352 229.88 352 232.002ZM336 280.002C336 282.124 335.157 284.159 333.657 285.659C332.157 287.159 330.122 288.002 328 288.002H120C117.878 288.002 115.843 287.159 114.343 285.659C112.843 284.159 112 282.124 112 280.002C112 277.88 112.843 275.846 114.343 274.345C115.843 272.845 117.878 272.002 120 272.002H328C330.122 272.002 332.157 272.845 333.657 274.345C335.157 275.846 336 277.88 336 280.002ZM208 136.002C208 133.88 208.843 131.846 210.343 130.345C211.843 128.845 213.878 128.002 216 128.002H360C362.122 128.002 364.157 128.845 365.657 130.345C367.157 131.846 368 133.88 368 136.002C368 138.124 367.157 140.159 365.657 141.659C364.157 143.159 362.122 144.002 360 144.002H216C213.878 144.002 211.843 143.159 210.343 141.659C208.843 140.159 208 138.124 208 136.002ZM264 176.002H424C426.122 176.002 428.157 176.845 429.657 178.345C431.157 179.846 432 181.88 432 184.002C432 186.124 431.157 188.159 429.657 189.659C428.157 191.159 426.122 192.002 424 192.002H264C261.878 192.002 259.843 191.159 258.343 189.659C256.843 188.159 256 186.124 256 184.002C256 181.88 256.843 179.846 258.343 178.345C259.843 176.845 261.878 176.002 264 176.002ZM424 240.002H376C373.878 240.002 371.843 239.159 370.343 237.659C368.843 236.159 368 234.124 368 232.002C368 229.88 368.843 227.846 370.343 226.345C371.843 224.845 373.878 224.002 376 224.002H424C426.122 224.002 428.157 224.845 429.657 226.345C431.157 227.846 432 229.88 432 232.002C432 234.124 431.157 236.159 429.657 237.659C428.157 239.159 426.122 240.002 424 240.002ZM208 184.002C208 181.88 208.843 179.846 210.343 178.345C211.843 176.845 213.878 176.002 216 176.002H232C234.122 176.002 236.157 176.845 237.657 178.345C239.157 179.846 240 181.88 240 184.002C240 186.124 239.157 188.159 237.657 189.659C236.157 191.159 234.122 192.002 232 192.002H216C213.878 192.002 211.843 191.159 210.343 189.659C208.843 188.159 208 186.124 208 184.002ZM112 232.002C112 229.88 112.843 227.846 114.343 226.345C115.843 224.845 117.878 224.002 120 224.002H184C186.122 224.002 188.157 224.845 189.657 226.345C191.157 227.846 192 229.88 192 232.002C192 234.124 191.157 236.159 189.657 237.659C188.157 239.159 186.122 240.002 184 240.002H120C117.878 240.002 115.843 239.159 114.343 237.659C112.843 236.159 112 234.124 112 232.002Z" fill="white"/>
</svg>
